<svg width="552" height="120" viewBox="0 0 552 120" fill="none" xmlns="http://www.w3.org/2000/svg">
<path d="M177.28 105.141C175.516 105.141 174.085 103.71 174.085 101.946V43.678C174.085 41.9132 175.516 40.4829 177.28 40.4829H188.067C189.832 40.4829 191.262 41.9132 191.262 43.678V101.946C191.262 103.71 189.832 105.141 188.067 105.141H177.28ZM182.674 33.981C179.484 33.981 176.908 33.0395 174.944 31.1586C172.981 29.1958 172 26.7005 172 23.6747C172 20.485 173.022 17.9076 175.067 15.9448C177.112 13.982 179.688 13 182.796 13C185.659 13 188.113 13.982 190.158 15.9448C192.284 17.8267 193.347 20.3615 193.347 23.5523C193.347 26.66 192.325 29.1958 190.28 31.1586C188.317 33.0395 185.781 33.981 182.674 33.981Z" fill="#0047D2"/>
<path d="M208.073 105.141C206.309 105.141 204.878 103.71 204.878 101.946V21.4712C204.878 19.7064 206.309 18.2761 208.073 18.2761H218.86C220.624 18.2761 222.055 19.7064 222.055 21.4712V101.946C222.055 103.71 220.624 105.141 218.86 105.141H208.073Z" fill="#0047D2"/>
<path d="M238.865 105.141C237.101 105.141 235.67 103.71 235.67 101.946V43.6779C235.67 41.9132 237.101 40.4828 238.865 40.4828H249.192C250.32 40.4828 251.291 41.2774 251.516 42.3818C251.929 44.4128 254.675 45.0294 256.296 43.7397C256.849 43.2987 257.418 42.9089 258 42.5692C260.044 41.3423 262.089 40.5243 264.134 40.1154C266.179 39.7064 268.061 39.5019 269.779 39.5019C273.622 39.5019 277.017 40.2379 279.961 41.7097C281.504 42.4808 282.889 43.499 284.117 44.7631C285.75 46.4448 288.675 46.628 290.421 45.0635C291.163 44.3979 291.93 43.8111 292.721 43.3052C294.766 41.9143 296.934 40.9334 299.219 40.3604C301.52 39.7874 303.841 39.5019 306.216 39.5019C311.211 39.5019 315.216 40.5648 318.24 42.6917C321.35 44.7365 323.598 47.5993 324.993 51.28C326.462 54.9608 327.197 59.2549 327.197 64.1626V101.946C327.197 103.71 325.77 105.141 324.002 105.141H313.214C311.456 105.141 310.018 103.71 310.018 101.946V68.7016C310.018 67.2298 309.944 65.7164 309.774 64.1626C309.614 62.6087 309.198 61.1357 308.549 59.7459C307.974 58.355 307.079 57.2101 305.854 56.3102C304.704 55.4102 303.064 54.9607 300.945 54.9607C298.9 54.9607 297.18 55.4102 295.789 56.3102C294.398 57.2101 293.294 58.437 292.477 59.9909C291.659 61.4627 291.045 63.0986 290.636 64.8985C290.308 66.6163 290.145 68.3747 290.145 70.1746V101.946C290.145 103.71 288.715 105.141 286.95 105.141H276.164C274.399 105.141 272.969 103.71 272.969 101.946V68.5792C272.969 67.1883 272.886 65.7164 272.722 64.1626C272.56 62.6087 272.191 61.1357 271.619 59.7459C271.046 58.355 270.106 57.2101 268.797 56.3102C267.57 55.4102 265.852 54.9607 263.644 54.9607C260.617 54.9607 258.286 55.8607 256.65 57.6595C255.096 59.3774 254.074 61.4627 253.583 63.9165C253.092 66.2894 252.847 68.4972 252.847 70.542V101.946C252.847 103.71 251.417 105.141 249.652 105.141H238.865Z" fill="#0047D2"/>
<path d="M343.343 105.141C341.575 105.141 340.148 103.71 340.148 101.946V21.4712C340.148 19.7064 341.575 18.2761 343.343 18.2761H354.132C355.9 18.2761 357.327 19.7064 357.327 21.4712V39.8141C357.327 42.6055 361.118 44.1328 363.579 42.8143C365.954 41.5874 368.328 40.7289 370.703 40.238C373.153 39.665 375.4 39.3785 377.445 39.3785C383.505 39.3785 388.244 40.7289 391.684 43.4277C395.114 46.1265 397.563 49.7667 399.044 54.3474C400.514 58.928 401.248 63.9581 401.248 69.4377V101.946C401.248 103.71 399.821 105.141 398.053 105.141H387.265C385.507 105.141 384.07 103.71 384.07 101.946V71.8915C384.07 69.9287 383.867 67.9658 383.463 66.0029C383.132 64.0401 382.515 62.2403 381.62 60.6044C380.715 58.8865 379.447 57.5371 377.818 56.5552C376.178 55.4923 374.016 54.9608 371.311 54.9608C368.776 54.9608 366.614 55.4923 364.814 56.5552C363.014 57.6191 361.534 59.0505 360.394 60.8493C359.329 62.5672 358.552 64.4896 358.062 66.6165C357.572 68.7433 357.327 70.8691 357.327 72.9959V101.946C357.327 103.71 355.9 105.141 354.132 105.141H343.343Z" fill="#0047D2"/>
<path d="M443.753 106C434.275 106 426.947 103.587 421.793 98.761C416.723 93.8533 414.188 86.492 414.188 76.6767V43.678C414.188 41.9133 415.616 40.483 417.383 40.483H428.172C429.94 40.483 431.367 41.9133 431.367 43.678V75.4498C431.367 78.3945 431.772 81.0124 432.592 83.3022C433.497 85.5111 434.839 87.2694 436.639 88.5783C438.524 89.8862 440.931 90.5412 443.881 90.5412C447.066 90.5412 449.526 89.8457 451.24 88.4547C452.955 87.0649 454.148 85.2246 454.798 82.9337C455.458 80.5619 455.777 78.0676 455.777 75.4498V43.678C455.777 41.9133 457.215 40.483 458.973 40.483H469.644C471.401 40.483 472.839 41.9133 472.839 43.678V76.6767C472.839 86.9009 470.262 94.3443 465.107 99.007C460.038 103.669 452.923 106 443.753 106Z" fill="#0047D2"/>
<path d="M523.012 106C520.882 106 518.635 105.795 516.26 105.386C513.97 104.977 511.681 104.2 509.391 103.055C508.56 102.595 507.751 102.065 506.952 101.466C505.471 100.346 503.075 101.275 503.043 103.135C503.032 104.248 502.117 105.141 501.009 105.141H489.4C487.632 105.141 486.205 103.71 486.205 101.946V21.4712C486.205 19.7064 487.632 18.2761 489.4 18.2761H500.189C501.946 18.2761 503.384 19.7064 503.384 21.4712V39.2645C503.384 42.253 507.548 43.9634 510.211 42.5959C510.935 42.2232 511.681 41.8877 512.458 41.5873C516.143 40.1155 519.945 39.3785 523.864 39.3785C530.255 39.3785 535.484 40.8514 539.573 43.7962C543.663 46.659 546.688 50.5846 548.658 55.5743C550.703 60.5639 551.725 66.2894 551.725 72.7509C551.725 79.0484 550.703 84.7335 548.658 89.8051C546.613 94.7937 543.461 98.7609 539.201 101.706C535.037 104.568 529.637 106 523.012 106ZM519.327 90.6636C523.343 90.6636 526.442 89.7636 528.657 87.9648C530.862 86.1649 532.417 83.8751 533.322 81.0933C534.216 78.3125 534.664 75.4093 534.664 72.3825C534.664 69.3568 534.174 66.5344 533.194 63.9166C532.214 61.2178 530.574 59.091 528.284 57.5371C526.08 55.9012 523.098 55.0833 519.327 55.0833C515.898 55.0833 512.948 55.9417 510.498 57.6596C508.123 59.2955 506.323 61.4628 505.099 64.1626C503.874 66.8614 503.256 69.7657 503.256 72.8735C503.256 75.9812 503.789 78.9259 504.854 81.7067C505.993 84.4065 507.761 86.5739 510.126 88.2098C512.501 89.8456 515.568 90.6636 519.327 90.6636Z" fill="#0047D2"/>
<path d="M0 59.9999C26.0946 75.7946 46.1154 95.6814 59.5 120C74.0097 95.0011 93.58 74.7716 119 59.9999C93.8066 44.2052 73.4472 24.5463 59.5 0C44.2037 23.9785 24.6309 44.2052 0 59.9999Z" fill="#FFC200"/>
</svg>
