<svg width="563" height="169" viewBox="0 0 563 169" fill="none" xmlns="http://www.w3.org/2000/svg">
<path d="M211.336 133C209.679 133 208.336 131.656 208.336 130V75.289C208.336 73.632 209.679 72.289 211.336 72.289H221.464C223.121 72.289 224.464 73.632 224.464 75.289V130C224.464 131.656 223.121 133 221.464 133H211.336ZM216.4 66.184C213.405 66.184 210.986 65.3 209.142 63.534C207.299 61.691 206.378 59.348 206.378 56.507C206.378 53.512 207.338 51.092 209.258 49.249C211.178 47.406 213.597 46.484 216.515 46.484C219.203 46.484 221.507 47.406 223.427 49.249C225.424 51.016 226.422 53.396 226.422 56.392C226.422 59.31 225.462 61.691 223.542 63.534C221.699 65.3 219.318 66.184 216.4 66.184Z" fill="#0047D2"/>
<path d="M240.249 133C238.592 133 237.249 131.656 237.249 130V54.438C237.249 52.781 238.592 51.438 240.249 51.438H250.377C252.033 51.438 253.377 52.781 253.377 54.438V130C253.377 131.656 252.033 133 250.377 133H240.249Z" fill="#0047D2"/>
<path d="M269.161 133C267.504 133 266.161 131.656 266.161 130V75.2889C266.161 73.6319 267.504 72.2889 269.161 72.2889H278.857C279.916 72.2889 280.828 73.035 281.039 74.072C281.427 75.979 284.005 76.5579 285.527 75.3469C286.047 74.9329 286.581 74.5669 287.127 74.2479C289.047 73.0959 290.967 72.3279 292.887 71.9439C294.807 71.5599 296.574 71.3679 298.187 71.3679C301.796 71.3679 304.983 72.0589 307.748 73.4409C309.196 74.1649 310.497 75.1209 311.65 76.3079C313.183 77.8869 315.93 78.059 317.569 76.59C318.266 75.965 318.986 75.414 319.729 74.939C321.649 73.633 323.684 72.712 325.83 72.174C327.99 71.636 330.17 71.3679 332.4 71.3679C337.09 71.3679 340.85 72.3659 343.69 74.3629C346.61 76.2829 348.72 78.9709 350.03 82.4269C351.41 85.8829 352.1 89.9149 352.1 94.5229V130C352.1 131.656 350.76 133 349.1 133H338.97C337.32 133 335.97 131.656 335.97 130V98.7849C335.97 97.4029 335.9 95.9819 335.74 94.5229C335.59 93.0639 335.2 91.6809 334.59 90.3759C334.05 89.0699 333.21 87.995 332.06 87.15C330.98 86.305 329.44 85.8829 327.45 85.8829C325.53 85.8829 323.915 86.305 322.609 87.15C321.303 87.995 320.267 89.147 319.499 90.606C318.731 91.988 318.155 93.5239 317.771 95.2139C317.463 96.8269 317.31 98.478 317.31 100.168V130C317.31 131.656 315.967 133 314.31 133H304.182C302.525 133 301.182 131.656 301.182 130V98.6699C301.182 97.3639 301.105 95.9819 300.951 94.5229C300.798 93.0639 300.452 91.6809 299.915 90.3759C299.377 89.0699 298.494 87.995 297.265 87.15C296.113 86.305 294.5 85.8829 292.427 85.8829C289.585 85.8829 287.396 86.7279 285.86 88.4169C284.401 90.0299 283.441 91.9879 282.98 94.2919C282.519 96.5199 282.289 98.5929 282.289 100.513V130C282.289 131.656 280.946 133 279.289 133H269.161Z" fill="#0047D2"/>
<path d="M367.26 133C365.6 133 364.26 131.656 364.26 130V54.438C364.26 52.781 365.6 51.438 367.26 51.438H377.39C379.05 51.438 380.39 52.781 380.39 54.438V71.661C380.39 74.282 383.95 75.716 386.26 74.478C388.49 73.326 390.72 72.52 392.95 72.059C395.25 71.521 397.36 71.252 399.28 71.252C404.97 71.252 409.42 72.52 412.65 75.054C415.87 77.588 418.17 81.006 419.56 85.307C420.94 89.608 421.63 94.331 421.63 99.476V130C421.63 131.656 420.29 133 418.63 133H408.5C406.85 133 405.5 131.656 405.5 130V101.78C405.5 99.937 405.31 98.094 404.93 96.251C404.62 94.408 404.04 92.718 403.2 91.182C402.35 89.569 401.16 88.302 399.63 87.38C398.09 86.382 396.06 85.883 393.52 85.883C391.14 85.883 389.11 86.382 387.42 87.38C385.73 88.379 384.34 89.723 383.27 91.412C382.27 93.025 381.54 94.83 381.08 96.827C380.62 98.824 380.39 100.82 380.39 102.817V130C380.39 131.656 379.05 133 377.39 133H367.26Z" fill="#0047D2"/>
<path d="M461.54 133.806C452.64 133.806 445.76 131.54 440.92 127.009C436.16 122.401 433.78 115.489 433.78 106.273V75.2891C433.78 73.6321 435.12 72.2891 436.78 72.2891H446.91C448.57 72.2891 449.91 73.6321 449.91 75.2891V105.121C449.91 107.886 450.29 110.344 451.06 112.494C451.91 114.568 453.17 116.219 454.86 117.448C456.63 118.676 458.89 119.291 461.66 119.291C464.65 119.291 466.96 118.638 468.57 117.332C470.18 116.027 471.3 114.299 471.91 112.148C472.53 109.921 472.83 107.579 472.83 105.121V75.2891C472.83 73.6321 474.18 72.2891 475.83 72.2891H485.85C487.5 72.2891 488.85 73.6321 488.85 75.2891V106.273C488.85 115.873 486.43 122.862 481.59 127.24C476.83 131.617 470.15 133.806 461.54 133.806Z" fill="#0047D2"/>
<path d="M535.96 133.806C533.96 133.806 531.85 133.614 529.62 133.23C527.47 132.846 525.32 132.116 523.17 131.041C522.39 130.609 521.63 130.111 520.88 129.549C519.49 128.497 517.24 129.37 517.21 131.116C517.2 132.161 516.34 133 515.3 133H504.4C502.74 133 501.4 131.656 501.4 130V54.438C501.4 52.781 502.74 51.438 504.4 51.438H514.53C516.18 51.438 517.53 52.781 517.53 54.438V71.145C517.53 73.951 521.44 75.557 523.94 74.273C524.62 73.923 525.32 73.608 526.05 73.326C529.51 71.944 533.08 71.252 536.76 71.252C542.76 71.252 547.67 72.635 551.51 75.4C555.35 78.088 558.19 81.774 560.04 86.459C561.96 91.144 562.92 96.52 562.92 102.587C562.92 108.5 561.96 113.838 560.04 118.6C558.12 123.284 555.16 127.009 551.16 129.774C547.25 132.462 542.18 133.806 535.96 133.806ZM532.5 119.406C536.27 119.406 539.18 118.561 541.26 116.872C543.33 115.182 544.79 113.032 545.64 110.42C546.48 107.809 546.9 105.083 546.9 102.241C546.9 99.4 546.44 96.75 545.52 94.292C544.6 91.758 543.06 89.761 540.91 88.302C538.84 86.766 536.04 85.998 532.5 85.998C529.28 85.998 526.51 86.804 524.21 88.417C521.98 89.953 520.29 91.988 519.14 94.523C517.99 97.057 517.41 99.784 517.41 102.702C517.41 105.62 517.91 108.385 518.91 110.996C519.98 113.531 521.64 115.566 523.86 117.102C526.09 118.638 528.97 119.406 532.5 119.406Z" fill="#0047D2"/>
<path d="M15.504 119.007C17.62 119.007 19.347 117.27 19.347 115.142V78.31C19.347 45.779 45.172 19.415 77.043 19.415C108.914 19.415 134.739 45.779 134.739 78.31V115.142C134.739 117.27 136.467 119.007 138.583 119.007H150.243C152.359 119.007 154.086 117.27 154.086 115.142V78.31C154 35.138 119.451 0 77 0C34.549 0 0 35.138 0 78.354V115.185C0 117.313 1.72699 119.051 3.84399 119.051H15.504V119.007Z" fill="#0047D2"/>
<path d="M110.296 127.65C98.463 127.65 87.667 132.254 79.591 139.768C78.123 141.158 75.877 141.158 74.409 139.768C66.333 132.254 55.537 127.65 43.704 127.65H3.75702C1.68402 127.65 0 129.344 0 131.429V147.673C0 149.758 1.68402 151.452 3.75702 151.452H43.704C54.371 151.452 63.267 157.793 65.124 168.043H88.919C90.733 157.793 99.629 151.452 110.339 151.452H150.286C152.359 151.452 154.043 149.758 154.043 147.673V131.429C154.043 129.344 152.359 127.65 150.286 127.65H110.339H110.296Z" fill="#0047D2"/>
<path d="M54.155 82.045C64.174 88.082 71.861 95.6831 77 104.978C82.571 95.4231 90.085 87.691 99.845 82.045C90.172 76.008 82.355 68.4941 77 59.1121C71.127 68.2771 63.612 76.008 54.155 82.045Z" fill="#FFC200"/>
</svg>
