<svg width="1920" height="1080" viewBox="0 0 1920 1080" fill="none" xmlns="http://www.w3.org/2000/svg">
<rect width="1920" height="1080" fill="#0047D2"/>
<path d="M885.141 645.369C884.426 645.369 883.846 644.788 883.846 644.073V620.442C883.846 619.726 884.426 619.146 885.141 619.146H889.516C890.232 619.146 890.812 619.726 890.812 620.442V644.073C890.812 644.788 890.232 645.369 889.516 645.369H885.141ZM887.329 616.509C886.035 616.509 884.99 616.127 884.194 615.364C883.398 614.568 883 613.556 883 612.329C883 611.036 883.415 609.99 884.244 609.194C885.073 608.398 886.118 608 887.378 608C888.539 608 889.535 608.398 890.364 609.194C891.226 609.957 891.658 610.985 891.658 612.28C891.658 613.54 891.243 614.568 890.414 615.364C889.618 616.127 888.589 616.509 887.329 616.509Z" fill="white"/>
<path d="M897.63 645.368C896.914 645.368 896.334 644.788 896.334 644.073V611.435C896.334 610.72 896.914 610.14 897.63 610.14H902.004C902.72 610.14 903.3 610.72 903.3 611.435V644.073C903.3 644.788 902.72 645.368 902.004 645.368H897.63Z" fill="white"/>
<path d="M910.118 645.369C909.402 645.369 908.822 644.788 908.822 644.073V620.442C908.822 619.726 909.402 619.146 910.118 619.146H914.306C914.763 619.146 915.157 619.468 915.248 619.916C915.416 620.74 916.529 620.99 917.187 620.467C917.411 620.288 917.642 620.13 917.878 619.992C918.707 619.494 919.536 619.163 920.366 618.997C921.195 618.831 921.958 618.748 922.655 618.748C924.214 618.748 925.59 619.047 926.785 619.643C927.41 619.956 927.972 620.369 928.469 620.882C929.132 621.564 930.319 621.638 931.026 621.004C931.328 620.734 931.639 620.496 931.959 620.29C932.789 619.726 933.668 619.329 934.595 619.096C935.528 618.864 936.469 618.748 937.432 618.748C939.458 618.748 941.082 619.179 942.309 620.042C943.57 620.871 944.481 622.032 945.047 623.525C945.643 625.017 945.941 626.759 945.941 628.749V644.073C945.941 644.788 945.363 645.369 944.646 645.369H940.27C939.557 645.369 938.974 644.788 938.974 644.073V630.59C938.974 629.993 938.944 629.38 938.875 628.749C938.81 628.119 938.642 627.522 938.378 626.958C938.145 626.394 937.782 625.93 937.286 625.565C936.819 625.2 936.154 625.017 935.294 625.017C934.465 625.017 933.768 625.2 933.203 625.565C932.639 625.93 932.192 626.427 931.86 627.057C931.528 627.654 931.28 628.318 931.114 629.048C930.981 629.744 930.915 630.458 930.915 631.188V644.073C930.915 644.788 930.335 645.369 929.619 645.369H925.244C924.529 645.369 923.949 644.788 923.949 644.073V630.541C923.949 629.976 923.915 629.38 923.849 628.749C923.783 628.119 923.633 627.522 923.401 626.958C923.169 626.394 922.788 625.93 922.257 625.565C921.759 625.2 921.062 625.017 920.167 625.017C918.939 625.017 917.994 625.382 917.331 626.112C916.7 626.809 916.286 627.654 916.087 628.65C915.887 629.612 915.788 630.507 915.788 631.337V644.073C915.788 644.788 915.208 645.369 914.492 645.369H910.118Z" fill="white"/>
<path d="M952.489 645.368C951.772 645.368 951.193 644.788 951.193 644.073V611.435C951.193 610.72 951.772 610.14 952.489 610.14H956.865C957.582 610.14 958.16 610.72 958.16 611.435V618.875C958.16 620.007 959.698 620.626 960.696 620.091C961.659 619.594 962.622 619.246 963.585 619.046C964.579 618.814 965.49 618.698 966.319 618.698C968.777 618.698 970.699 619.246 972.094 620.34C973.485 621.435 974.479 622.911 975.079 624.769C975.675 626.626 975.973 628.666 975.973 630.889V644.073C975.973 644.788 975.394 645.368 974.677 645.368H970.302C969.589 645.368 969.006 644.788 969.006 644.073V631.884C969.006 631.088 968.924 630.292 968.76 629.496C968.626 628.7 968.375 627.97 968.013 627.306C967.645 626.609 967.131 626.062 966.471 625.664C965.805 625.233 964.929 625.017 963.832 625.017C962.804 625.017 961.927 625.233 961.197 625.664C960.467 626.095 959.866 626.676 959.404 627.405C958.972 628.102 958.657 628.882 958.458 629.744C958.26 630.607 958.16 631.469 958.16 632.332V644.073C958.16 644.788 957.582 645.368 956.865 645.368H952.489Z" fill="white"/>
<path d="M993.212 645.717C989.367 645.717 986.396 644.738 984.305 642.781C982.249 640.79 981.221 637.805 981.221 633.824V620.442C981.221 619.726 981.8 619.146 982.517 619.146H986.893C987.61 619.146 988.188 619.726 988.188 620.442V633.327C988.188 634.521 988.352 635.583 988.685 636.511C989.052 637.407 989.596 638.12 990.326 638.651C991.091 639.182 992.067 639.447 993.263 639.447C994.555 639.447 995.553 639.165 996.248 638.601C996.943 638.037 997.427 637.291 997.691 636.362C997.958 635.4 998.088 634.388 998.088 633.327V620.442C998.088 619.726 998.671 619.146 999.384 619.146H1003.71C1004.42 619.146 1005.01 619.726 1005.01 620.442V633.824C1005.01 637.971 1003.96 640.99 1001.87 642.881C999.816 644.771 996.93 645.717 993.212 645.717Z" fill="white"/>
<path d="M1025.36 645.717C1024.49 645.717 1023.58 645.634 1022.62 645.468C1021.69 645.302 1020.76 644.987 1019.83 644.522C1019.49 644.336 1019.17 644.121 1018.84 643.878C1018.24 643.424 1017.27 643.801 1017.26 644.555C1017.25 645.006 1016.88 645.368 1016.43 645.368H1011.72C1011.01 645.368 1010.43 644.788 1010.43 644.073V611.435C1010.43 610.72 1011.01 610.14 1011.72 610.14H1016.1C1016.81 610.14 1017.39 610.72 1017.39 611.435V618.652C1017.39 619.864 1019.08 620.557 1020.16 620.003C1020.46 619.852 1020.76 619.715 1021.07 619.594C1022.57 618.997 1024.11 618.698 1025.7 618.698C1028.29 618.698 1030.41 619.295 1032.07 620.489C1033.73 621.651 1034.96 623.243 1035.76 625.266C1036.59 627.29 1037 629.612 1037 632.232C1037 634.786 1036.59 637.092 1035.76 639.149C1034.93 641.172 1033.65 642.781 1031.92 643.975C1030.23 645.136 1028.04 645.717 1025.36 645.717ZM1023.86 639.497C1025.49 639.497 1026.75 639.132 1027.64 638.402C1028.54 637.672 1029.17 636.744 1029.54 635.616C1029.9 634.488 1030.08 633.31 1030.08 632.083C1030.08 630.856 1029.88 629.711 1029.48 628.649C1029.09 627.555 1028.42 626.692 1027.49 626.062C1026.6 625.399 1025.39 625.067 1023.86 625.067C1022.47 625.067 1021.27 625.415 1020.28 626.112C1019.32 626.775 1018.59 627.654 1018.09 628.749C1017.59 629.844 1017.34 631.022 1017.34 632.282C1017.34 633.542 1017.56 634.737 1017.99 635.864C1018.45 636.959 1019.17 637.838 1020.13 638.502C1021.09 639.165 1022.34 639.497 1023.86 639.497Z" fill="white"/>
<path d="M898.504 553.007C900.62 553.007 902.347 551.27 902.347 549.142V512.31C902.347 479.779 928.172 453.415 960.043 453.415C991.914 453.415 1017.74 479.779 1017.74 512.31V549.142C1017.74 551.27 1019.47 553.007 1021.58 553.007H1033.24C1035.36 553.007 1037.09 551.27 1037.09 549.142V512.31C1037 469.138 1002.45 434 960 434C917.549 434 883 469.138 883 512.354V549.185C883 551.313 884.727 553.051 886.844 553.051H898.504V553.007Z" fill="white"/>
<path d="M993.296 561.65C981.463 561.65 970.667 566.254 962.591 573.768C961.123 575.158 958.877 575.158 957.409 573.768C949.333 566.254 938.537 561.65 926.704 561.65H886.757C884.684 561.65 883 563.344 883 565.429V581.673C883 583.758 884.684 585.452 886.757 585.452H926.704C937.371 585.452 946.267 591.793 948.124 602.043H971.919C973.733 591.793 982.629 585.452 993.339 585.452H1033.29C1035.36 585.452 1037.04 583.758 1037.04 581.673V565.429C1037.04 563.344 1035.36 561.65 1033.29 561.65H993.339H993.296Z" fill="white"/>
<path d="M937.155 516.045C947.174 522.082 954.861 529.683 960 538.978C965.571 529.423 973.085 521.691 982.845 516.045C973.172 510.008 965.355 502.494 960 493.112C954.127 502.277 946.612 510.008 937.155 516.045Z" fill="#FFC200"/>
</svg>
