<svg width="1080" height="1080" viewBox="0 0 1080 1080" fill="none" xmlns="http://www.w3.org/2000/svg">
<rect width="1080" height="1080" fill="white"/>
<path d="M353.115 645.855C359.546 645.855 364.795 640.602 364.795 634.166V522.795C364.795 424.426 443.276 344.706 540.131 344.706C636.986 344.706 715.467 424.426 715.467 522.795V634.166C715.467 640.602 720.717 645.855 727.147 645.855H762.582C769.013 645.855 774.262 640.602 774.262 634.166V522.795C774 392.249 669.008 286 540 286C410.992 286 306 392.249 306 522.927V634.298C306 640.733 311.25 645.987 317.68 645.987H353.115V645.855Z" fill="#0047D2"/>
<path d="M641.186 671.99C605.226 671.99 572.416 685.912 547.874 708.632C543.412 712.835 536.588 712.835 532.126 708.632C507.584 685.912 474.774 671.99 438.814 671.99H317.418C311.118 671.99 306 677.112 306 683.416V732.535C306 738.839 311.118 743.961 317.418 743.961H438.814C471.231 743.961 498.266 763.136 503.909 794.131H576.222C581.734 763.136 608.769 743.961 641.317 743.961H762.713C769.013 743.961 774.131 738.839 774.131 732.535V683.416C774.131 677.112 769.013 671.99 762.713 671.99H641.317H641.186Z" fill="#0047D2"/>
<path d="M470.574 534.09C501.022 552.346 524.382 575.329 540 603.435C556.93 574.541 579.765 551.164 609.426 534.09C580.028 515.835 556.274 493.114 540 464.746C522.151 492.458 499.316 515.835 470.574 534.09Z" fill="#FFC200"/>
</svg>
